<mxfile host="app.diagrams.net" modified="2023-09-14T06:46:57.635Z" agent="Mozilla/5.0 (Windows NT 10.0; Win64; x64) AppleWebKit/537.36 (KHTML, like Gecko) Chrome/116.0.0.0 Safari/537.36" etag="TRGyOCHhrrzF0o7sL4jN" version="21.7.5" type="github">
  <diagram id="C5RBs43oDa-KdzZeNtuy" name="Page-1">
    <mxGraphModel dx="1480" dy="873" grid="1" gridSize="10" guides="1" tooltips="1" connect="1" arrows="1" fold="1" page="0" pageScale="1" pageWidth="827" pageHeight="1169" math="0" shadow="0">
      <root>
        <mxCell id="WIyWlLk6GJQsqaUBKTNV-0" />
        <mxCell id="WIyWlLk6GJQsqaUBKTNV-1" parent="WIyWlLk6GJQsqaUBKTNV-0" />
        <mxCell id="P800Ft5VoC8Bbs1D-sst-1" value="" style="endArrow=classic;html=1;rounded=0;" edge="1" parent="WIyWlLk6GJQsqaUBKTNV-1">
          <mxGeometry width="50" height="50" relative="1" as="geometry">
            <mxPoint x="110" y="204.5" as="sourcePoint" />
            <mxPoint x="140" y="205" as="targetPoint" />
          </mxGeometry>
        </mxCell>
        <mxCell id="P800Ft5VoC8Bbs1D-sst-8" value="" style="edgeStyle=orthogonalEdgeStyle;rounded=0;orthogonalLoop=1;jettySize=auto;html=1;" edge="1" parent="WIyWlLk6GJQsqaUBKTNV-1" source="P800Ft5VoC8Bbs1D-sst-3" target="P800Ft5VoC8Bbs1D-sst-5">
          <mxGeometry relative="1" as="geometry" />
        </mxCell>
        <mxCell id="P800Ft5VoC8Bbs1D-sst-3" value="preprocessing" style="rounded=1;whiteSpace=wrap;html=1;" vertex="1" parent="WIyWlLk6GJQsqaUBKTNV-1">
          <mxGeometry x="140" y="160" width="80" height="90" as="geometry" />
        </mxCell>
        <mxCell id="P800Ft5VoC8Bbs1D-sst-4" value="" style="endArrow=classic;html=1;rounded=0;" edge="1" parent="WIyWlLk6GJQsqaUBKTNV-1">
          <mxGeometry width="50" height="50" relative="1" as="geometry">
            <mxPoint x="220" y="204.5" as="sourcePoint" />
            <mxPoint x="250" y="205" as="targetPoint" />
          </mxGeometry>
        </mxCell>
        <mxCell id="P800Ft5VoC8Bbs1D-sst-5" value="segmentation model" style="rounded=1;whiteSpace=wrap;html=1;" vertex="1" parent="WIyWlLk6GJQsqaUBKTNV-1">
          <mxGeometry x="250" y="160" width="80" height="90" as="geometry" />
        </mxCell>
        <mxCell id="P800Ft5VoC8Bbs1D-sst-6" value="" style="endArrow=classic;html=1;rounded=0;exitX=1;exitY=0.5;exitDx=0;exitDy=0;" edge="1" parent="WIyWlLk6GJQsqaUBKTNV-1" source="P800Ft5VoC8Bbs1D-sst-5">
          <mxGeometry width="50" height="50" relative="1" as="geometry">
            <mxPoint x="530" y="204.5" as="sourcePoint" />
            <mxPoint x="360" y="205" as="targetPoint" />
          </mxGeometry>
        </mxCell>
        <mxCell id="P800Ft5VoC8Bbs1D-sst-7" value="Information" style="shape=cylinder3;whiteSpace=wrap;html=1;boundedLbl=1;backgroundOutline=1;size=15;" vertex="1" parent="WIyWlLk6GJQsqaUBKTNV-1">
          <mxGeometry x="360" y="165" width="70" height="80" as="geometry" />
        </mxCell>
        <mxCell id="P800Ft5VoC8Bbs1D-sst-11" value="Sequence Labelling model" style="rounded=0;whiteSpace=wrap;html=1;" vertex="1" parent="WIyWlLk6GJQsqaUBKTNV-1">
          <mxGeometry x="460" y="175" width="120" height="60" as="geometry" />
        </mxCell>
        <mxCell id="P800Ft5VoC8Bbs1D-sst-13" value="Resume" style="shape=note;whiteSpace=wrap;html=1;backgroundOutline=1;darkOpacity=0.05;" vertex="1" parent="WIyWlLk6GJQsqaUBKTNV-1">
          <mxGeometry x="40" y="160" width="70" height="80" as="geometry" />
        </mxCell>
        <mxCell id="P800Ft5VoC8Bbs1D-sst-14" value="Extracted Info" style="shape=note;whiteSpace=wrap;html=1;backgroundOutline=1;darkOpacity=0.05;" vertex="1" parent="WIyWlLk6GJQsqaUBKTNV-1">
          <mxGeometry x="610" y="160" width="70" height="80" as="geometry" />
        </mxCell>
        <mxCell id="P800Ft5VoC8Bbs1D-sst-16" value="" style="endArrow=classic;html=1;rounded=0;exitX=1;exitY=0.5;exitDx=0;exitDy=0;exitPerimeter=0;" edge="1" parent="WIyWlLk6GJQsqaUBKTNV-1">
          <mxGeometry width="50" height="50" relative="1" as="geometry">
            <mxPoint x="580" y="204.5" as="sourcePoint" />
            <mxPoint x="610" y="204.5" as="targetPoint" />
          </mxGeometry>
        </mxCell>
        <mxCell id="P800Ft5VoC8Bbs1D-sst-17" value="" style="endArrow=classic;html=1;rounded=0;exitX=1;exitY=0.5;exitDx=0;exitDy=0;exitPerimeter=0;" edge="1" parent="WIyWlLk6GJQsqaUBKTNV-1">
          <mxGeometry width="50" height="50" relative="1" as="geometry">
            <mxPoint x="430" y="204.5" as="sourcePoint" />
            <mxPoint x="460" y="204.5" as="targetPoint" />
          </mxGeometry>
        </mxCell>
        <mxCell id="P800Ft5VoC8Bbs1D-sst-18" value="" style="endArrow=classic;html=1;rounded=0;exitX=1;exitY=0.5;exitDx=0;exitDy=0;exitPerimeter=0;" edge="1" parent="WIyWlLk6GJQsqaUBKTNV-1">
          <mxGeometry width="50" height="50" relative="1" as="geometry">
            <mxPoint x="680" y="204.5" as="sourcePoint" />
            <mxPoint x="710" y="204.5" as="targetPoint" />
          </mxGeometry>
        </mxCell>
        <mxCell id="P800Ft5VoC8Bbs1D-sst-19" value="convert to .json" style="rounded=0;whiteSpace=wrap;html=1;" vertex="1" parent="WIyWlLk6GJQsqaUBKTNV-1">
          <mxGeometry x="707" y="175" width="103" height="60" as="geometry" />
        </mxCell>
        <mxCell id="P800Ft5VoC8Bbs1D-sst-20" value="" style="endArrow=classic;html=1;rounded=0;exitX=1;exitY=0.5;exitDx=0;exitDy=0;exitPerimeter=0;" edge="1" parent="WIyWlLk6GJQsqaUBKTNV-1">
          <mxGeometry width="50" height="50" relative="1" as="geometry">
            <mxPoint x="810" y="204.5" as="sourcePoint" />
            <mxPoint x="840" y="204.5" as="targetPoint" />
          </mxGeometry>
        </mxCell>
        <mxCell id="P800Ft5VoC8Bbs1D-sst-21" value=".json file" style="shape=note;whiteSpace=wrap;html=1;backgroundOutline=1;darkOpacity=0.05;" vertex="1" parent="WIyWlLk6GJQsqaUBKTNV-1">
          <mxGeometry x="840" y="160" width="70" height="80" as="geometry" />
        </mxCell>
        <mxCell id="P800Ft5VoC8Bbs1D-sst-22" value="&lt;h1&gt;Parsing a pdf/doc file to json&lt;/h1&gt;" style="text;html=1;strokeColor=none;fillColor=none;spacing=5;spacingTop=-20;whiteSpace=wrap;overflow=hidden;rounded=0;" vertex="1" parent="WIyWlLk6GJQsqaUBKTNV-1">
          <mxGeometry x="330" y="540" width="350" height="50" as="geometry" />
        </mxCell>
        <mxCell id="P800Ft5VoC8Bbs1D-sst-23" value="" style="endArrow=classic;html=1;rounded=0;" edge="1" parent="WIyWlLk6GJQsqaUBKTNV-1">
          <mxGeometry width="50" height="50" relative="1" as="geometry">
            <mxPoint x="110" y="414.5" as="sourcePoint" />
            <mxPoint x="140" y="415" as="targetPoint" />
          </mxGeometry>
        </mxCell>
        <mxCell id="P800Ft5VoC8Bbs1D-sst-24" value="" style="edgeStyle=orthogonalEdgeStyle;rounded=0;orthogonalLoop=1;jettySize=auto;html=1;" edge="1" parent="WIyWlLk6GJQsqaUBKTNV-1" source="P800Ft5VoC8Bbs1D-sst-25" target="P800Ft5VoC8Bbs1D-sst-27">
          <mxGeometry relative="1" as="geometry" />
        </mxCell>
        <mxCell id="P800Ft5VoC8Bbs1D-sst-25" value="preprocessing" style="rounded=1;whiteSpace=wrap;html=1;" vertex="1" parent="WIyWlLk6GJQsqaUBKTNV-1">
          <mxGeometry x="140" y="370" width="80" height="90" as="geometry" />
        </mxCell>
        <mxCell id="P800Ft5VoC8Bbs1D-sst-26" value="" style="endArrow=classic;html=1;rounded=0;" edge="1" parent="WIyWlLk6GJQsqaUBKTNV-1">
          <mxGeometry width="50" height="50" relative="1" as="geometry">
            <mxPoint x="220" y="414.5" as="sourcePoint" />
            <mxPoint x="250" y="415" as="targetPoint" />
          </mxGeometry>
        </mxCell>
        <mxCell id="P800Ft5VoC8Bbs1D-sst-27" value="segmentation model" style="rounded=1;whiteSpace=wrap;html=1;" vertex="1" parent="WIyWlLk6GJQsqaUBKTNV-1">
          <mxGeometry x="250" y="370" width="80" height="90" as="geometry" />
        </mxCell>
        <mxCell id="P800Ft5VoC8Bbs1D-sst-28" value="" style="endArrow=classic;html=1;rounded=0;exitX=1;exitY=0.5;exitDx=0;exitDy=0;" edge="1" parent="WIyWlLk6GJQsqaUBKTNV-1" source="P800Ft5VoC8Bbs1D-sst-27">
          <mxGeometry width="50" height="50" relative="1" as="geometry">
            <mxPoint x="530" y="414.5" as="sourcePoint" />
            <mxPoint x="360" y="415" as="targetPoint" />
          </mxGeometry>
        </mxCell>
        <mxCell id="P800Ft5VoC8Bbs1D-sst-29" value="Information" style="shape=cylinder3;whiteSpace=wrap;html=1;boundedLbl=1;backgroundOutline=1;size=15;" vertex="1" parent="WIyWlLk6GJQsqaUBKTNV-1">
          <mxGeometry x="360" y="375" width="70" height="80" as="geometry" />
        </mxCell>
        <mxCell id="P800Ft5VoC8Bbs1D-sst-30" value="Sequence Labelling model" style="rounded=0;whiteSpace=wrap;html=1;" vertex="1" parent="WIyWlLk6GJQsqaUBKTNV-1">
          <mxGeometry x="460" y="385" width="120" height="60" as="geometry" />
        </mxCell>
        <mxCell id="P800Ft5VoC8Bbs1D-sst-31" value="Job Description" style="shape=note;whiteSpace=wrap;html=1;backgroundOutline=1;darkOpacity=0.05;" vertex="1" parent="WIyWlLk6GJQsqaUBKTNV-1">
          <mxGeometry x="40" y="370" width="70" height="80" as="geometry" />
        </mxCell>
        <mxCell id="P800Ft5VoC8Bbs1D-sst-32" value="Extracted Info" style="shape=note;whiteSpace=wrap;html=1;backgroundOutline=1;darkOpacity=0.05;" vertex="1" parent="WIyWlLk6GJQsqaUBKTNV-1">
          <mxGeometry x="610" y="370" width="70" height="80" as="geometry" />
        </mxCell>
        <mxCell id="P800Ft5VoC8Bbs1D-sst-33" value="" style="endArrow=classic;html=1;rounded=0;exitX=1;exitY=0.5;exitDx=0;exitDy=0;exitPerimeter=0;" edge="1" parent="WIyWlLk6GJQsqaUBKTNV-1">
          <mxGeometry width="50" height="50" relative="1" as="geometry">
            <mxPoint x="580" y="414.5" as="sourcePoint" />
            <mxPoint x="610" y="414.5" as="targetPoint" />
          </mxGeometry>
        </mxCell>
        <mxCell id="P800Ft5VoC8Bbs1D-sst-34" value="" style="endArrow=classic;html=1;rounded=0;exitX=1;exitY=0.5;exitDx=0;exitDy=0;exitPerimeter=0;" edge="1" parent="WIyWlLk6GJQsqaUBKTNV-1">
          <mxGeometry width="50" height="50" relative="1" as="geometry">
            <mxPoint x="430" y="414.5" as="sourcePoint" />
            <mxPoint x="460" y="414.5" as="targetPoint" />
          </mxGeometry>
        </mxCell>
        <mxCell id="P800Ft5VoC8Bbs1D-sst-35" value="" style="endArrow=classic;html=1;rounded=0;exitX=1;exitY=0.5;exitDx=0;exitDy=0;exitPerimeter=0;" edge="1" parent="WIyWlLk6GJQsqaUBKTNV-1">
          <mxGeometry width="50" height="50" relative="1" as="geometry">
            <mxPoint x="680" y="414.5" as="sourcePoint" />
            <mxPoint x="710" y="414.5" as="targetPoint" />
          </mxGeometry>
        </mxCell>
        <mxCell id="P800Ft5VoC8Bbs1D-sst-36" value="convert to .json" style="rounded=0;whiteSpace=wrap;html=1;" vertex="1" parent="WIyWlLk6GJQsqaUBKTNV-1">
          <mxGeometry x="707" y="385" width="103" height="60" as="geometry" />
        </mxCell>
        <mxCell id="P800Ft5VoC8Bbs1D-sst-37" value="" style="endArrow=classic;html=1;rounded=0;exitX=1;exitY=0.5;exitDx=0;exitDy=0;exitPerimeter=0;" edge="1" parent="WIyWlLk6GJQsqaUBKTNV-1">
          <mxGeometry width="50" height="50" relative="1" as="geometry">
            <mxPoint x="810" y="414.5" as="sourcePoint" />
            <mxPoint x="840" y="414.5" as="targetPoint" />
          </mxGeometry>
        </mxCell>
        <mxCell id="P800Ft5VoC8Bbs1D-sst-38" value=".json file" style="shape=note;whiteSpace=wrap;html=1;backgroundOutline=1;darkOpacity=0.05;" vertex="1" parent="WIyWlLk6GJQsqaUBKTNV-1">
          <mxGeometry x="840" y="370" width="70" height="80" as="geometry" />
        </mxCell>
      </root>
    </mxGraphModel>
  </diagram>
</mxfile>
